<?xml version="1.0" encoding="UTF-8" standalone="no"?>
<!-- Created with Inkscape (http://www.inkscape.org/) -->

<svg
   xmlns:dc="http://purl.org/dc/elements/1.1/"
   xmlns:cc="http://creativecommons.org/ns#"
   xmlns:rdf="http://www.w3.org/1999/02/22-rdf-syntax-ns#"
   xmlns:svg="http://www.w3.org/2000/svg"
   xmlns="http://www.w3.org/2000/svg"
   xmlns:sodipodi="http://sodipodi.sourceforge.net/DTD/sodipodi-0.dtd"
   xmlns:inkscape="http://www.inkscape.org/namespaces/inkscape"
   width="146.0769mm"
   height="49.50782mm"
   viewBox="0 0 146.0769 49.50782"
   version="1.1"
   id="svg8"
   inkscape:version="0.92.5 (2060ec1f9f, 2020-04-08)"
   sodipodi:docname="erias-name-dark-tm.svg">
  <defs
     id="defs2" />
  <sodipodi:namedview
     id="base"
     pagecolor="#ffffff"
     bordercolor="#666666"
     borderopacity="1.0"
     inkscape:pageopacity="0.0"
     inkscape:pageshadow="2"
     inkscape:zoom="2.8"
     inkscape:cx="222.20559"
     inkscape:cy="190.18924"
     inkscape:document-units="mm"
     inkscape:current-layer="layer1"
     showgrid="false"
     inkscape:window-width="3840"
     inkscape:window-height="1973"
     inkscape:window-x="-18"
     inkscape:window-y="-18"
     inkscape:window-maximized="1"
     fit-margin-top="-0.5"
     fit-margin-left="0"
     fit-margin-right="0"
     fit-margin-bottom="0" />
  <metadata
     id="metadata5">
    <rdf:RDF>
      <cc:Work
         rdf:about="">
        <dc:format>image/svg+xml</dc:format>
        <dc:type
           rdf:resource="http://purl.org/dc/dcmitype/StillImage" />
        <dc:title></dc:title>
      </cc:Work>
    </rdf:RDF>
  </metadata>
  <g
     inkscape:label="Layer 1"
     inkscape:groupmode="layer"
     id="layer1"
     transform="translate(-35.432855,-132.97236)">
    <g
       id="g44"
       transform="matrix(0.26458333,0,0,0.26458333,35.432952,135.97516)">
      <g
         id="g22">
        <path
           id="path10"
           d="m 296.078,110.859 c -1.074,-0.438 -2.02,-1.063 -2.863,-1.871 l -0.145,-0.145 c -0.809,-0.844 -1.434,-1.789 -1.863,-2.859 -0.441,-1.078 -0.656,-2.195 -0.656,-3.367 0,-1.094 0.203,-2.16 0.594,-3.195 l -0.008,-0.004 c 0.289,-0.754 0.684,-1.457 1.191,-2.121 L 326.859,28.442 334.32,13.567 C 336.566,9.09 338.55,2.422 342.965,0.649 344.027,0.219 345.14,0 346.3,0 c 5.379,0 6.688,2.43 8.227,5.09 l 1.227,2.457 1.031,2.055 44.82,89.383 c 2.258,4.5 0.098,9.781 -5.078,11.867 -1.074,0.438 -2.195,0.656 -3.359,0.656 -1.227,0 -2.383,-0.242 -3.461,-0.711 -0.992,-0.422 -1.883,-1.031 -2.664,-1.813 -0.887,-0.82 -1.563,-1.77 -2.031,-2.848 -0.281,-0.645 -0.477,-1.309 -0.594,-1.984 l -5.367,-10.664 h -65.004 l -3.648,7.262 -1.77,3.531 c -2.891,5.758 -7.11,8.758 -12.551,6.578 z M 346.597,28.68 322.964,75.727 h 47.188 z"
           inkscape:connector-curvature="0"
           style="clip-rule:evenodd;fill:#ffffff;fill-rule:evenodd" />
        <path
           id="path12"
           d="m 237.59,96.445 c 0.781,0.836 1.391,1.789 1.809,2.852 0.41,1.055 0.625,2.16 0.625,3.32 0,1.211 -0.234,2.348 -0.684,3.426 -0.438,1.051 -1.063,1.973 -1.859,2.801 l -0.063,0.078 c -0.832,0.844 -1.82,1.484 -2.93,1.93 -1.078,0.438 -2.199,0.656 -3.359,0.656 -1.223,0 -2.375,-0.242 -3.461,-0.711 -0.926,-0.398 -1.77,-0.961 -2.516,-1.672 -0.195,-0.156 -0.363,-0.313 -0.52,-0.469 -0.16,-0.156 -0.313,-0.332 -0.457,-0.52 L 180.66,64.648 h -34.383 v 37.969 c 0,1.172 -0.219,2.289 -0.648,3.367 -0.43,1.07 -1.055,2.016 -1.867,2.859 l -0.145,0.145 c -0.848,0.816 -1.785,1.445 -2.84,1.871 h -0.023 c -1.063,0.43 -2.176,0.648 -3.348,0.648 -1.172,0 -2.293,-0.219 -3.367,-0.648 -1.074,-0.438 -2.02,-1.063 -2.859,-1.871 l -0.145,-0.145 c -0.813,-0.844 -1.438,-1.789 -1.867,-2.859 -0.438,-1.078 -0.652,-2.195 -0.652,-3.367 V 46.883 h 17.762 26.23 35.191 c 2.07,0 3.945,-0.348 5.617,-1.039 1.68,-0.695 3.246,-1.77 4.691,-3.215 l -0.012,-0.008 c 1.461,-1.457 2.535,-3.02 3.223,-4.68 0.695,-1.676 1.043,-3.551 1.043,-5.621 0,-2.07 -0.348,-3.945 -1.043,-5.617 -0.688,-1.656 -1.762,-3.219 -3.223,-4.68 -1.461,-1.461 -3.023,-2.531 -4.68,-3.223 -1.672,-0.691 -3.547,-1.039 -5.617,-1.039 h -35.191 -26.23 -17.762 V 8.895 c 0,-1.16 0.219,-2.289 0.652,-3.359 0.449,-1.113 1.094,-2.094 1.926,-2.934 l 0.086,-0.059 C 132.003,1.742 132.929,1.117 133.98,0.68 135.054,0.235 136.195,0 137.406,0 h 70.293 c 4.414,0 8.539,0.797 12.383,2.398 3.836,1.602 7.32,3.973 10.445,7.098 3.129,3.125 5.492,6.605 7.094,10.449 1.602,3.836 2.402,7.961 2.402,12.375 0,4.414 -0.801,8.547 -2.402,12.391 -1.594,3.816 -3.961,7.297 -7.105,10.43 l 0.012,0.008 c -3.125,3.125 -6.609,5.492 -10.445,7.094 -3.836,1.598 -7.969,2.406 -12.383,2.406 h -1.922 l 31.668,31.648 z"
           inkscape:connector-curvature="0"
           style="clip-rule:evenodd;fill:#ffffff;fill-rule:evenodd" />
        <path
           id="path14"
           d="m 256.406,8.895 c 0,-1.16 0.219,-2.289 0.648,-3.359 0.449,-1.113 1.094,-2.094 1.934,-2.934 l 0.078,-0.059 c 0.828,-0.801 1.758,-1.426 2.805,-1.863 1.07,-0.445 2.214,-0.68 3.425,-0.68 1.223,0 2.363,0.234 3.438,0.68 1.016,0.43 1.938,1.055 2.773,1.863 l 0.078,0.059 c 0.84,0.836 1.484,1.816 1.934,2.93 0.43,1.074 0.648,2.203 0.648,3.363 v 93.723 c 0,1.172 -0.219,2.289 -0.648,3.367 -0.434,1.07 -1.055,2.016 -1.867,2.859 l -0.145,0.145 c -0.848,0.816 -1.785,1.445 -2.84,1.871 h -0.023 c -1.063,0.43 -2.176,0.648 -3.348,0.648 -1.172,0 -2.292,-0.219 -3.371,-0.648 -1.07,-0.438 -2.02,-1.063 -2.859,-1.871 l -0.141,-0.145 c -0.816,-0.844 -1.438,-1.789 -1.871,-2.859 -0.43,-1.078 -0.648,-2.195 -0.648,-3.367 z"
           inkscape:connector-curvature="0"
           style="clip-rule:evenodd;fill:#ffffff;fill-rule:evenodd" />
        <path
           id="path16"
           d="m 516.074,0 c 1.164,0 2.305,0.234 3.383,0.676 1.094,0.449 2.055,1.098 2.883,1.926 l 0.016,0.02 c 0.832,0.832 1.48,1.793 1.93,2.887 0.445,1.078 0.68,2.215 0.68,3.387 0,1.168 -0.234,2.305 -0.68,3.387 -0.457,1.117 -1.109,2.082 -1.93,2.898 -0.828,0.836 -1.809,1.484 -2.922,1.934 -1.074,0.43 -2.203,0.648 -3.359,0.648 h -70.289 c -2.074,0 -3.949,0.348 -5.625,1.039 -1.656,0.691 -3.219,1.762 -4.68,3.223 l -0.008,-0.008 c -1.445,1.445 -2.52,3.012 -3.211,4.688 -0.695,1.672 -1.039,3.547 -1.039,5.617 0,2.07 0.344,3.945 1.039,5.621 0.691,1.672 1.762,3.238 3.203,4.68 l 0.016,0.023 c 1.445,1.434 3.008,2.504 4.684,3.199 1.672,0.691 3.547,1.039 5.621,1.039 h 46.855 c 4.414,0 8.535,0.797 12.383,2.391 3.84,1.594 7.32,3.953 10.449,7.082 3.125,3.125 5.492,6.617 7.09,10.457 1.602,3.844 2.402,7.969 2.402,12.371 0,4.414 -0.801,8.543 -2.402,12.391 -1.602,3.844 -3.965,7.336 -7.09,10.461 h -0.02 c -3.145,3.133 -6.617,5.496 -10.43,7.078 -3.848,1.598 -7.969,2.395 -12.383,2.395 h -70.289 c -1.176,0 -2.301,-0.219 -3.367,-0.648 -1.082,-0.438 -2.027,-1.063 -2.867,-1.871 l -0.141,-0.145 c -0.813,-0.844 -1.438,-1.789 -1.871,-2.859 -0.43,-1.078 -0.645,-2.195 -0.645,-3.367 0,-1.188 0.215,-2.305 0.645,-3.371 0.43,-1.055 1.059,-2.004 1.895,-2.863 l 0.117,-0.121 c 0.84,-0.809 1.793,-1.434 2.867,-1.871 1.066,-0.434 2.191,-0.648 3.367,-0.648 h 70.289 c 2.074,0 3.945,-0.344 5.613,-1.039 1.68,-0.695 3.254,-1.766 4.699,-3.211 l -0.012,-0.012 c 1.457,-1.457 2.531,-3.02 3.227,-4.676 0.688,-1.676 1.031,-3.547 1.031,-5.621 0,-2.047 -0.344,-3.91 -1.039,-5.582 -0.695,-1.676 -1.773,-3.242 -3.219,-4.691 v -0.02 c -1.438,-1.445 -2.996,-2.52 -4.676,-3.215 -1.668,-0.688 -3.543,-1.027 -5.625,-1.027 h -46.855 c -4.414,0 -8.551,-0.809 -12.398,-2.406 -3.844,-1.602 -7.328,-3.969 -10.457,-7.094 l 0.008,-0.008 c -3.137,-3.133 -5.504,-6.609 -7.082,-10.422 -1.598,-3.848 -2.395,-7.984 -2.395,-12.398 0,-4.406 0.793,-8.531 2.387,-12.375 1.594,-3.844 3.953,-7.32 7.082,-10.449 C 426.058,6.371 429.542,4 433.386,2.398 437.238,0.797 441.371,0 445.785,0 Z"
           inkscape:connector-curvature="0"
           style="clip-rule:evenodd;fill:#ffffff;fill-rule:evenodd" />
        <path
           id="path18"
           d="m 18.387,46.883 h 84.852 0.055 c 1.141,0.008 2.25,0.227 3.305,0.648 1.113,0.449 2.098,1.102 2.93,1.934 l 0.063,0.078 c 0.801,0.832 1.43,1.754 1.859,2.777 v 0.023 c 0.449,1.07 0.684,2.203 0.684,3.406 0,1.172 -0.23,2.309 -0.68,3.391 -0.461,1.109 -1.105,2.082 -1.926,2.898 -0.816,0.82 -1.789,1.469 -2.902,1.93 -1.078,0.445 -2.215,0.68 -3.387,0.68 H 18.387 v 29.094 h 84.852 c 1.16,0 2.285,0.219 3.359,0.648 1.113,0.457 2.098,1.102 2.93,1.938 l 0.063,0.078 c 0.801,0.828 1.43,1.75 1.859,2.777 v 0.02 c 0.449,1.07 0.684,2.207 0.684,3.414 0,1.211 -0.234,2.348 -0.684,3.426 -0.438,1.051 -1.063,1.973 -1.859,2.801 l -0.063,0.078 c -0.836,0.844 -1.82,1.484 -2.93,1.93 -1.074,0.438 -2.195,0.656 -3.359,0.656 H 9.52 c -1.18,0 -2.297,-0.219 -3.371,-0.648 -1.074,-0.438 -2.02,-1.063 -2.863,-1.871 L 3.145,108.844 C 2.332,108 1.707,107.055 1.278,105.985 0.84,104.907 0.626,103.79 0.626,102.618 V 46.883 Z"
           inkscape:connector-curvature="0"
           style="clip-rule:evenodd;fill:#ffffff;fill-rule:evenodd" />
        <path
           id="path20"
           d="m 9.52,0 h 93.719 c 1.172,0 2.309,0.234 3.387,0.676 1.09,0.449 2.055,1.098 2.883,1.926 l 0.02,0.02 c 0.824,0.832 1.477,1.793 1.926,2.887 0.449,1.078 0.68,2.215 0.68,3.387 0,1.168 -0.23,2.305 -0.68,3.387 -0.461,1.117 -1.105,2.082 -1.926,2.898 -0.832,0.836 -1.816,1.484 -2.93,1.934 -1.055,0.426 -2.164,0.637 -3.305,0.648 H 103.239 18.387 0.625 V 8.895 C 0.625,7.735 0.844,6.606 1.277,5.536 1.726,4.423 2.371,3.442 3.203,2.602 L 3.285,2.543 C 4.113,1.742 5.039,1.117 6.09,0.68 7.164,0.234 8.305,0 9.52,0 Z"
           inkscape:connector-curvature="0"
           style="clip-rule:evenodd;fill:#b45364;fill-rule:evenodd" />
      </g>
      <path
         id="path24"
         d="m 76.402,150.836 v 7.047 h 22.211 c 0.73,0 1.414,0.281 1.93,0.797 0.508,0.523 0.785,1.188 0.785,1.91 0,0.727 -0.281,1.406 -0.793,1.918 -0.52,0.512 -1.191,0.789 -1.922,0.789 H 76.402 v 7.047 h 22.211 c 0.73,0 1.414,0.281 1.93,0.797 0.504,0.516 0.785,1.188 0.785,1.91 0,0.727 -0.273,1.391 -0.785,1.914 -0.516,0.52 -1.199,0.801 -1.93,0.801 H 73.695 c -0.723,0 -1.391,-0.27 -1.938,-0.805 -0.508,-0.523 -0.777,-1.188 -0.777,-1.91 v -24.918 c 0,-0.734 0.277,-1.414 0.797,-1.934 0.527,-0.508 1.191,-0.781 1.918,-0.781 h 24.918 c 0.73,0 1.402,0.277 1.922,0.793 0.512,0.516 0.793,1.195 0.793,1.922 0,0.727 -0.281,1.406 -0.793,1.918 -0.52,0.512 -1.199,0.785 -1.922,0.785 z M 29.859,149.73 c 0.277,-0.543 0.52,-1.145 0.52,-1.598 0,-0.734 -0.281,-1.414 -0.805,-1.934 -0.52,-0.508 -1.184,-0.781 -1.91,-0.781 -1.652,0 -2.152,0.902 -2.566,1.734 L 15.129,167 5.402,147.605 c -0.781,-1.578 -1.355,-2.188 -2.656,-2.188 -0.73,0 -1.406,0.277 -1.918,0.793 -0.633,0.641 -1.211,1.891 -0.504,3.32 l 11.973,23.879 c 0.574,1.148 1.316,2.355 2.906,2.355 1.59,0 2.121,-1.047 2.746,-2.297 z m 137.137,16.77 v -18.367 c 0,-0.727 0.273,-1.406 0.789,-1.922 0.516,-0.516 1.188,-0.793 1.914,-0.793 0.734,0 1.406,0.277 1.926,0.793 0.512,0.516 0.793,1.195 0.793,1.922 v 24.918 c 0,0.727 -0.273,1.391 -0.781,1.914 -0.52,0.52 -1.203,0.801 -1.938,0.801 -0.688,0 -1.328,-0.254 -1.813,-0.723 -0.07,-0.059 -0.145,-0.117 -0.207,-0.176 L 147.495,154.66 v 18.391 c 0,0.723 -0.27,1.387 -0.809,1.934 -0.512,0.508 -1.176,0.781 -1.898,0.781 -0.73,0 -1.395,-0.27 -1.938,-0.805 -0.512,-0.523 -0.777,-1.188 -0.777,-1.91 v -24.918 c 0,-0.734 0.273,-1.414 0.797,-1.934 0.523,-0.508 1.188,-0.781 1.918,-0.781 0.707,0 1.367,0.258 1.926,0.781 z m 64.043,-15.664 v 22.215 c 0,0.723 -0.262,1.387 -0.801,1.934 -0.516,0.508 -1.18,0.781 -1.906,0.781 -0.73,0 -1.414,-0.281 -1.922,-0.801 -0.512,-0.523 -0.785,-1.188 -0.785,-1.914 v -22.215 h -9.742 c -0.723,0 -1.387,-0.262 -1.934,-0.785 -0.508,-0.516 -0.781,-1.191 -0.781,-1.918 0,-0.734 0.273,-1.414 0.797,-1.934 0.523,-0.508 1.188,-0.781 1.918,-0.781 h 24.91 c 0.734,0 1.402,0.277 1.922,0.793 0.516,0.516 0.797,1.195 0.797,1.922 0,0.727 -0.281,1.406 -0.797,1.918 -0.516,0.512 -1.195,0.785 -1.922,0.785 z m 78.144,-2.703 c 0,-0.727 0.27,-1.406 0.781,-1.922 0.516,-0.516 1.191,-0.793 1.922,-0.793 0.731,0 1.398,0.277 1.914,0.793 0.52,0.516 0.797,1.195 0.797,1.922 v 12.457 c 0,4.168 -1.5,7.777 -4.441,10.727 -2.945,2.949 -6.559,4.449 -10.73,4.449 -4.171,0 -7.773,-1.5 -10.727,-4.449 -2.949,-2.949 -4.441,-6.551 -4.441,-10.727 v -12.457 c 0,-0.734 0.273,-1.414 0.793,-1.934 0.523,-0.508 1.195,-0.781 1.922,-0.781 0.723,0 1.391,0.277 1.902,0.781 0.523,0.52 0.797,1.199 0.797,1.934 v 12.457 c 0,2.719 0.938,4.984 2.855,6.902 1.922,1.922 4.188,2.852 6.898,2.852 2.719,0 4.984,-0.93 6.898,-2.852 1.922,-1.918 2.859,-4.184 2.859,-6.902 v -12.457 z m 71.945,26.879 c -0.09,-0.074 -0.168,-0.152 -0.242,-0.234 l -11.477,-11.48 h -8.645 v 9.754 c 0,0.723 -0.27,1.387 -0.801,1.934 -0.516,0.508 -1.18,0.781 -1.906,0.781 -0.719,0 -1.391,-0.27 -1.938,-0.805 -0.5,-0.523 -0.773,-1.188 -0.773,-1.91 v -24.918 c 0,-0.734 0.273,-1.414 0.797,-1.934 0.52,-0.508 1.195,-0.781 1.914,-0.781 h 18.695 c 2.449,0 4.578,0.895 6.313,2.629 1.734,1.73 2.625,3.867 2.625,6.316 0,2.441 -0.891,4.586 -2.625,6.313 -1.656,1.652 -3.68,2.543 -5.988,2.621 l 7.867,7.863 c 0.488,0.52 0.746,1.184 0.746,1.891 0,0.727 -0.277,1.391 -0.785,1.914 -0.512,0.52 -1.195,0.801 -1.93,0.801 -0.702,-0.001 -1.35,-0.267 -1.847,-0.755 z m 50.731,-24.176 v 7.047 h 22.207 c 0.738,0 1.414,0.281 1.934,0.797 0.508,0.523 0.781,1.188 0.781,1.91 0,0.727 -0.285,1.406 -0.793,1.918 -0.516,0.512 -1.188,0.789 -1.922,0.789 h -22.207 v 7.047 h 22.207 c 0.738,0 1.414,0.281 1.934,0.797 0.508,0.516 0.781,1.188 0.781,1.91 0,0.727 -0.273,1.391 -0.781,1.914 -0.52,0.52 -1.195,0.801 -1.934,0.801 h -24.914 c -0.727,0 -1.391,-0.27 -1.941,-0.805 -0.504,-0.523 -0.77,-1.188 -0.77,-1.91 v -24.918 c 0,-0.734 0.273,-1.414 0.797,-1.934 0.52,-0.508 1.184,-0.781 1.914,-0.781 h 24.914 c 0.734,0 1.406,0.277 1.922,0.793 0.508,0.516 0.793,1.195 0.793,1.922 0,0.727 -0.285,1.406 -0.793,1.918 -0.516,0.512 -1.188,0.785 -1.922,0.785 z m 93.301,-5.418 c 0.727,0 1.406,0.277 1.918,0.793 0.512,0.516 0.797,1.195 0.797,1.922 0,0.727 -0.285,1.406 -0.797,1.918 -0.512,0.512 -1.191,0.785 -1.918,0.785 h -18.691 c -0.988,0 -1.785,0.336 -2.484,1.031 -0.703,0.703 -1.035,1.5 -1.035,2.496 0,0.992 0.332,1.785 1.035,2.484 0.699,0.703 1.496,1.035 2.484,1.035 h 12.461 c 2.449,0 4.586,0.891 6.316,2.617 1.73,1.734 2.629,3.867 2.629,6.32 0,2.449 -0.898,4.59 -2.629,6.32 -1.731,1.73 -3.867,2.625 -6.316,2.625 h -18.684 c -0.73,0 -1.395,-0.27 -1.941,-0.805 -0.508,-0.523 -0.77,-1.188 -0.77,-1.91 0,-0.722 0.262,-1.387 0.797,-1.93 0.52,-0.512 1.184,-0.777 1.914,-0.777 h 18.684 c 0.996,0 1.797,-0.332 2.488,-1.035 0.703,-0.699 1.039,-1.492 1.039,-2.488 0,-0.988 -0.34,-1.789 -1.039,-2.484 -0.703,-0.711 -1.492,-1.039 -2.488,-1.039 h -12.461 c -2.449,0 -4.582,-0.891 -6.313,-2.621 -1.734,-1.727 -2.621,-3.871 -2.621,-6.313 0,-2.449 0.887,-4.586 2.617,-6.316 1.73,-1.734 3.867,-2.629 6.316,-2.629 h 18.692 z m -164.395,5.418 v 7.047 h 15.988 c 0.984,0 1.785,-0.332 2.488,-1.035 0.703,-0.699 1.031,-1.492 1.031,-2.484 0,-0.996 -0.328,-1.793 -1.031,-2.496 -0.703,-0.695 -1.504,-1.031 -2.488,-1.031 h -15.988 z"
         inkscape:connector-curvature="0"
         style="clip-rule:evenodd;fill:#b45364;fill-rule:evenodd" />
      <path
         id="path26"
         d="m 2.977,126.109 h 519.636 c 1.297,0 2.352,1.055 2.352,2.352 v 0 c 0,1.293 -1.055,2.348 -2.352,2.348 H 2.977 c -1.297,0 -2.352,-1.055 -2.352,-2.348 v 0 c 0,-1.297 1.055,-2.352 2.352,-2.352 z"
         inkscape:connector-curvature="0"
         style="clip-rule:evenodd;fill:#b45364;fill-rule:evenodd" />
    </g>
    <text
       xml:space="preserve"
       style="font-style:normal;font-variant:normal;font-weight:normal;font-stretch:normal;font-size:2.82222222px;line-height:1.25;font-family:sans-serif;-inkscape-font-specification:'sans-serif, Normal';font-variant-ligatures:normal;font-variant-caps:normal;font-variant-numeric:normal;font-feature-settings:normal;text-align:start;letter-spacing:0px;word-spacing:0px;writing-mode:lr;text-anchor:start;fill:#ffffff;fill-opacity:1;stroke:none;stroke-width:0.26458332;"
       x="176.13689"
       y="136.17116"
       id="text48"><tspan
         sodipodi:role="line"
         id="tspan46"
         x="176.13689"
         y="136.17116"
         style="font-style:normal;font-variant:normal;font-weight:normal;font-stretch:normal;font-size:2.82222222px;font-family:sans-serif;-inkscape-font-specification:'sans-serif, Normal';font-variant-ligatures:normal;font-variant-caps:normal;font-variant-numeric:normal;font-feature-settings:normal;text-align:start;writing-mode:lr;text-anchor:start;fill:#ffffff;stroke-width:0.26458332;">TM</tspan></text>
  </g>
</svg>
